<svg xmlns="http://www.w3.org/2000/svg" xmlns:xlink="http://www.w3.org/1999/xlink" contentStyleType="text/css" data-diagram-type="CLASS" height="560px" preserveAspectRatio="none" style="width:525px;height:560px;background:#FFFFFF;" version="1.1" viewBox="0 0 525 560" width="525px" zoomAndPan="magnify"><defs/><g><!--class Paciente--><g class="entity" data-entity="Paciente" data-source-line="3" data-uid="ent0002" id="entity_Paciente"><rect fill="#FFFFFF" height="129.0732" rx="2.5" ry="2.5" style="stroke:#000000;stroke-width:1;" width="159.3418" x="12" y="12"/><ellipse cx="58.3999" cy="26" fill="#FFFFFF" rx="9" ry="9" style="stroke:#000000;stroke-width:1;"/><path d="M57.2593,26.7969 L57.2593,29.2969 L61.5874,29.2969 L61.5874,28.375 Q61.5874,27.7656 61.8296,27.5 Q62.0718,27.2344 62.4468,27.2344 Q62.8218,27.2344 63.0562,27.5 Q63.2905,27.7656 63.2905,28.375 L63.2905,31 L55.2905,31 Q54.6655,31 54.4077,30.7656 Q54.1499,30.5313 54.1499,30.1406 Q54.1499,29.7656 54.4155,29.5313 Q54.6812,29.2969 55.2905,29.2969 L55.5562,29.2969 L55.5562,22.6406 L55.2905,22.6406 Q54.6655,22.6406 54.4077,22.4063 Q54.1499,22.1719 54.1499,21.7813 Q54.1499,21.4063 54.4077,21.1719 Q54.6655,20.9375 55.2905,20.9375 L62.9155,20.9375 L62.9155,23.5313 Q62.9155,24.1406 62.689,24.3984 Q62.4624,24.6563 62.0718,24.6563 Q61.6968,24.6563 61.4624,24.3984 Q61.228,24.1406 61.228,23.5313 L61.228,22.6406 L57.2593,22.6406 L57.2593,25.0938 L58.7437,25.0938 Q58.7437,24.4375 58.8687,24.25 Q59.1343,23.8438 59.603,23.8438 Q59.978,23.8438 60.2124,24.1016 Q60.4468,24.3594 60.4468,24.9688 L60.4468,26.9375 Q60.4468,27.4844 60.3218,27.6719 Q60.0562,28.0625 59.603,28.0625 Q59.1343,28.0625 58.8687,27.6563 Q58.7437,27.4688 58.7437,26.7969 L57.2593,26.7969 Z " fill="#000000"/><text fill="#000000" font-family="Verdana" font-size="14" lengthAdjust="spacing" textLength="59.042" x="75.8999" y="31.5679">Paciente</text><line style="stroke:#000000;stroke-width:1;" x1="13" x2="170.3418" y1="40" y2="40"/><ellipse cx="23" cy="54.0073" fill="#FFFFFF" rx="3" ry="3" style="stroke:#000000;stroke-width:1;"/><text fill="#000000" font-family="Verdana" font-size="14" lengthAdjust="spacing" textLength="121.9805" x="30" y="58.0752">id_paciente : INT</text><line style="stroke:#000000;stroke-width:1;" x1="13" x2="170.3418" y1="65.0146" y2="65.0146"/><text fill="#000000" font-family="Verdana" font-size="14" lengthAdjust="spacing" textLength="138.6875" x="18" y="83.0898">nombre : VARCHAR</text><text fill="#000000" font-family="Verdana" font-size="14" lengthAdjust="spacing" textLength="105.0273" x="18" y="100.1045">rut : VARCHAR</text><text fill="#000000" font-family="Verdana" font-size="14" lengthAdjust="spacing" textLength="75.3867" x="18" y="117.1191">edad : INT</text><text fill="#000000" font-family="Verdana" font-size="14" lengthAdjust="spacing" textLength="147.3418" x="18" y="134.1338">direccion : VARCHAR</text></g><!--class Sintoma--><g class="entity" data-entity="Sintoma" data-source-line="12" data-uid="ent0003" id="entity_Sintoma"><rect fill="#FFFFFF" height="95.0439" rx="2.5" ry="2.5" style="stroke:#000000;stroke-width:1;" width="150.6875" x="368" y="235"/><ellipse cx="410.4385" cy="249" fill="#FFFFFF" rx="9" ry="9" style="stroke:#000000;stroke-width:1;"/><path d="M409.2979,249.7969 L409.2979,252.2969 L413.626,252.2969 L413.626,251.375 Q413.626,250.7656 413.8682,250.5 Q414.1104,250.2344 414.4854,250.2344 Q414.8604,250.2344 415.0947,250.5 Q415.3291,250.7656 415.3291,251.375 L415.3291,254 L407.3291,254 Q406.7041,254 406.4463,253.7656 Q406.1885,253.5313 406.1885,253.1406 Q406.1885,252.7656 406.4541,252.5313 Q406.7197,252.2969 407.3291,252.2969 L407.5947,252.2969 L407.5947,245.6406 L407.3291,245.6406 Q406.7041,245.6406 406.4463,245.4063 Q406.1885,245.1719 406.1885,244.7813 Q406.1885,244.4063 406.4463,244.1719 Q406.7041,243.9375 407.3291,243.9375 L414.9541,243.9375 L414.9541,246.5313 Q414.9541,247.1406 414.7275,247.3984 Q414.501,247.6563 414.1104,247.6563 Q413.7354,247.6563 413.501,247.3984 Q413.2666,247.1406 413.2666,246.5313 L413.2666,245.6406 L409.2979,245.6406 L409.2979,248.0938 L410.7822,248.0938 Q410.7822,247.4375 410.9072,247.25 Q411.1729,246.8438 411.6416,246.8438 Q412.0166,246.8438 412.251,247.1016 Q412.4854,247.3594 412.4854,247.9688 L412.4854,249.9375 Q412.4854,250.4844 412.3604,250.6719 Q412.0947,251.0625 411.6416,251.0625 Q411.1729,251.0625 410.9072,250.6563 Q410.7822,250.4688 410.7822,249.7969 L409.2979,249.7969 Z " fill="#000000"/><text fill="#000000" font-family="Verdana" font-size="14" lengthAdjust="spacing" textLength="58.3105" x="427.9385" y="254.5679">Sintoma</text><line style="stroke:#000000;stroke-width:1;" x1="369" x2="517.6875" y1="263" y2="263"/><ellipse cx="379" cy="277.0073" fill="#FFFFFF" rx="3" ry="3" style="stroke:#000000;stroke-width:1;"/><text fill="#000000" font-family="Verdana" font-size="14" lengthAdjust="spacing" textLength="118.6924" x="386" y="281.0752">id_sintoma : INT</text><line style="stroke:#000000;stroke-width:1;" x1="369" x2="517.6875" y1="288.0146" y2="288.0146"/><text fill="#000000" font-family="Verdana" font-size="14" lengthAdjust="spacing" textLength="138.6875" x="374" y="306.0898">nombre : VARCHAR</text><text fill="#000000" font-family="Verdana" font-size="14" lengthAdjust="spacing" textLength="130.5801" x="374" y="323.1045">descripcion : TEXT</text></g><!--class Diagnostico--><g class="entity" data-entity="Diagnostico" data-source-line="19" data-uid="ent0004" id="entity_Diagnostico"><rect fill="#FFFFFF" height="129.0732" rx="2.5" ry="2.5" style="stroke:#000000;stroke-width:1;" width="166.1533" x="166.5" y="218"/><ellipse cx="205.0469" cy="232" fill="#FFFFFF" rx="9" ry="9" style="stroke:#000000;stroke-width:1;"/><path d="M203.9063,232.7969 L203.9063,235.2969 L208.2344,235.2969 L208.2344,234.375 Q208.2344,233.7656 208.4766,233.5 Q208.7188,233.2344 209.0938,233.2344 Q209.4688,233.2344 209.7031,233.5 Q209.9375,233.7656 209.9375,234.375 L209.9375,237 L201.9375,237 Q201.3125,237 201.0547,236.7656 Q200.7969,236.5313 200.7969,236.1406 Q200.7969,235.7656 201.0625,235.5313 Q201.3281,235.2969 201.9375,235.2969 L202.2031,235.2969 L202.2031,228.6406 L201.9375,228.6406 Q201.3125,228.6406 201.0547,228.4063 Q200.7969,228.1719 200.7969,227.7813 Q200.7969,227.4063 201.0547,227.1719 Q201.3125,226.9375 201.9375,226.9375 L209.5625,226.9375 L209.5625,229.5313 Q209.5625,230.1406 209.3359,230.3984 Q209.1094,230.6563 208.7188,230.6563 Q208.3438,230.6563 208.1094,230.3984 Q207.875,230.1406 207.875,229.5313 L207.875,228.6406 L203.9063,228.6406 L203.9063,231.0938 L205.3906,231.0938 Q205.3906,230.4375 205.5156,230.25 Q205.7813,229.8438 206.25,229.8438 Q206.625,229.8438 206.8594,230.1016 Q207.0938,230.3594 207.0938,230.9688 L207.0938,232.9375 Q207.0938,233.4844 206.9688,233.6719 Q206.7031,234.0625 206.25,234.0625 Q205.7813,234.0625 205.5156,233.6563 Q205.3906,233.4688 205.3906,232.7969 L203.9063,232.7969 Z " fill="#000000"/><text fill="#000000" font-family="Verdana" font-size="14" lengthAdjust="spacing" textLength="81.5596" x="222.5469" y="237.5679">Diagnostico</text><line style="stroke:#000000;stroke-width:1;" x1="167.5" x2="331.6533" y1="246" y2="246"/><ellipse cx="177.5" cy="260.0073" fill="#FFFFFF" rx="3" ry="3" style="stroke:#000000;stroke-width:1;"/><text fill="#000000" font-family="Verdana" font-size="14" lengthAdjust="spacing" textLength="142.1533" x="184.5" y="264.0752">id_diagnostico : INT</text><line style="stroke:#000000;stroke-width:1;" x1="167.5" x2="331.6533" y1="271.0146" y2="271.0146"/><text fill="#000000" font-family="Verdana" font-size="14" lengthAdjust="spacing" textLength="130.5801" x="172.5" y="289.0898">descripcion : TEXT</text><text fill="#000000" font-family="Verdana" font-size="14" lengthAdjust="spacing" textLength="91.8613" x="172.5" y="306.1045">fecha : DATE</text><text fill="#000000" font-family="Verdana" font-size="14" lengthAdjust="spacing" textLength="121.9805" x="172.5" y="323.1191">paciente_id : INT</text><text fill="#000000" font-family="Verdana" font-size="14" lengthAdjust="spacing" textLength="114.3926" x="172.5" y="340.1338">usuario_id : INT</text></g><!--class Historial--><g class="entity" data-entity="Historial" data-source-line="28" data-uid="ent0005" id="entity_Historial"><rect fill="#FFFFFF" height="129.0732" rx="2.5" ry="2.5" style="stroke:#000000;stroke-width:1;" width="154.1533" x="49.5" y="424"/><ellipse cx="93.9585" cy="438" fill="#FFFFFF" rx="9" ry="9" style="stroke:#000000;stroke-width:1;"/><path d="M92.8179,438.7969 L92.8179,441.2969 L97.146,441.2969 L97.146,440.375 Q97.146,439.7656 97.3882,439.5 Q97.6304,439.2344 98.0054,439.2344 Q98.3804,439.2344 98.6147,439.5 Q98.8491,439.7656 98.8491,440.375 L98.8491,443 L90.8491,443 Q90.2241,443 89.9663,442.7656 Q89.7085,442.5313 89.7085,442.1406 Q89.7085,441.7656 89.9741,441.5313 Q90.2397,441.2969 90.8491,441.2969 L91.1147,441.2969 L91.1147,434.6406 L90.8491,434.6406 Q90.2241,434.6406 89.9663,434.4063 Q89.7085,434.1719 89.7085,433.7813 Q89.7085,433.4063 89.9663,433.1719 Q90.2241,432.9375 90.8491,432.9375 L98.4741,432.9375 L98.4741,435.5313 Q98.4741,436.1406 98.2476,436.3984 Q98.021,436.6563 97.6304,436.6563 Q97.2554,436.6563 97.021,436.3984 Q96.7866,436.1406 96.7866,435.5313 L96.7866,434.6406 L92.8179,434.6406 L92.8179,437.0938 L94.3022,437.0938 Q94.3022,436.4375 94.4272,436.25 Q94.6929,435.8438 95.1616,435.8438 Q95.5366,435.8438 95.771,436.1016 Q96.0054,436.3594 96.0054,436.9688 L96.0054,438.9375 Q96.0054,439.4844 95.8804,439.6719 Q95.6147,440.0625 95.1616,440.0625 Q94.6929,440.0625 94.4272,439.6563 Q94.3022,439.4688 94.3022,438.7969 L92.8179,438.7969 Z " fill="#000000"/><text fill="#000000" font-family="Verdana" font-size="14" lengthAdjust="spacing" textLength="57.7363" x="111.4585" y="443.5679">Historial</text><line style="stroke:#000000;stroke-width:1;" x1="50.5" x2="202.6533" y1="452" y2="452"/><ellipse cx="60.5" cy="466.0073" fill="#FFFFFF" rx="3" ry="3" style="stroke:#000000;stroke-width:1;"/><text fill="#000000" font-family="Verdana" font-size="14" lengthAdjust="spacing" textLength="118.7334" x="67.5" y="470.0752">id_historial : INT</text><line style="stroke:#000000;stroke-width:1;" x1="50.5" x2="202.6533" y1="477.0146" y2="477.0146"/><text fill="#000000" font-family="Verdana" font-size="14" lengthAdjust="spacing" textLength="121.9805" x="55.5" y="495.0898">paciente_id : INT</text><text fill="#000000" font-family="Verdana" font-size="14" lengthAdjust="spacing" textLength="142.1533" x="55.5" y="512.1045">diagnostico_id : INT</text><text fill="#000000" font-family="Verdana" font-size="14" lengthAdjust="spacing" textLength="141.6885" x="55.5" y="529.1191">tratamientos : TEXT</text><text fill="#000000" font-family="Verdana" font-size="14" lengthAdjust="spacing" textLength="91.8613" x="55.5" y="546.1338">fecha : DATE</text></g><!--class Usuario--><g class="entity" data-entity="Usuario" data-source-line="37" data-uid="ent0006" id="entity_Usuario"><rect fill="#FFFFFF" height="129.0732" rx="2.5" ry="2.5" style="stroke:#000000;stroke-width:1;" width="220.8311" x="206" y="12"/><ellipse cx="286.1045" cy="26" fill="#FFFFFF" rx="9" ry="9" style="stroke:#000000;stroke-width:1;"/><path d="M284.9639,26.7969 L284.9639,29.2969 L289.292,29.2969 L289.292,28.375 Q289.292,27.7656 289.5342,27.5 Q289.7764,27.2344 290.1514,27.2344 Q290.5264,27.2344 290.7607,27.5 Q290.9951,27.7656 290.9951,28.375 L290.9951,31 L282.9951,31 Q282.3701,31 282.1123,30.7656 Q281.8545,30.5313 281.8545,30.1406 Q281.8545,29.7656 282.1201,29.5313 Q282.3857,29.2969 282.9951,29.2969 L283.2607,29.2969 L283.2607,22.6406 L282.9951,22.6406 Q282.3701,22.6406 282.1123,22.4063 Q281.8545,22.1719 281.8545,21.7813 Q281.8545,21.4063 282.1123,21.1719 Q282.3701,20.9375 282.9951,20.9375 L290.6201,20.9375 L290.6201,23.5313 Q290.6201,24.1406 290.3936,24.3984 Q290.167,24.6563 289.7764,24.6563 Q289.4014,24.6563 289.167,24.3984 Q288.9326,24.1406 288.9326,23.5313 L288.9326,22.6406 L284.9639,22.6406 L284.9639,25.0938 L286.4482,25.0938 Q286.4482,24.4375 286.5732,24.25 Q286.8389,23.8438 287.3076,23.8438 Q287.6826,23.8438 287.917,24.1016 Q288.1514,24.3594 288.1514,24.9688 L288.1514,26.9375 Q288.1514,27.4844 288.0264,27.6719 Q287.7607,28.0625 287.3076,28.0625 Q286.8389,28.0625 286.5732,27.6563 Q286.4482,27.4688 286.4482,26.7969 L284.9639,26.7969 Z " fill="#000000"/><text fill="#000000" font-family="Verdana" font-size="14" lengthAdjust="spacing" textLength="53.1221" x="303.6045" y="31.5679">Usuario</text><line style="stroke:#000000;stroke-width:1;" x1="207" x2="425.8311" y1="40" y2="40"/><ellipse cx="217" cy="54.0073" fill="#FFFFFF" rx="3" ry="3" style="stroke:#000000;stroke-width:1;"/><text fill="#000000" font-family="Verdana" font-size="14" lengthAdjust="spacing" textLength="114.3926" x="224" y="58.0752">id_usuario : INT</text><line style="stroke:#000000;stroke-width:1;" x1="207" x2="425.8311" y1="65.0146" y2="65.0146"/><text fill="#000000" font-family="Verdana" font-size="14" lengthAdjust="spacing" textLength="138.6875" x="212" y="83.0898">nombre : VARCHAR</text><text fill="#000000" font-family="Verdana" font-size="14" lengthAdjust="spacing" textLength="122.7256" x="212" y="100.1045">email : VARCHAR</text><text fill="#000000" font-family="Verdana" font-size="14" lengthAdjust="spacing" textLength="151.0469" x="212" y="117.1191">password : VARCHAR</text><text fill="#000000" font-family="Verdana" font-size="14" lengthAdjust="spacing" textLength="208.8311" x="212" y="134.1338">rol : ENUM(medico, visitante)</text></g><!--class DiagnosticoSintoma--><g class="entity" data-entity="DiagnosticoSintoma" data-source-line="46" data-uid="ent0007" id="entity_DiagnosticoSintoma"><rect fill="#FFFFFF" height="78.0293" rx="2.5" ry="2.5" style="stroke:#000000;stroke-width:1;" width="176.7705" x="297" y="449.5"/><ellipse cx="310" cy="463.5" fill="#FFFFFF" rx="9" ry="9" style="stroke:#000000;stroke-width:1;"/><path d="M308.8594,464.2969 L308.8594,466.7969 L313.1875,466.7969 L313.1875,465.875 Q313.1875,465.2656 313.4297,465 Q313.6719,464.7344 314.0469,464.7344 Q314.4219,464.7344 314.6563,465 Q314.8906,465.2656 314.8906,465.875 L314.8906,468.5 L306.8906,468.5 Q306.2656,468.5 306.0078,468.2656 Q305.75,468.0313 305.75,467.6406 Q305.75,467.2656 306.0156,467.0313 Q306.2813,466.7969 306.8906,466.7969 L307.1563,466.7969 L307.1563,460.1406 L306.8906,460.1406 Q306.2656,460.1406 306.0078,459.9063 Q305.75,459.6719 305.75,459.2813 Q305.75,458.9063 306.0078,458.6719 Q306.2656,458.4375 306.8906,458.4375 L314.5156,458.4375 L314.5156,461.0313 Q314.5156,461.6406 314.2891,461.8984 Q314.0625,462.1563 313.6719,462.1563 Q313.2969,462.1563 313.0625,461.8984 Q312.8281,461.6406 312.8281,461.0313 L312.8281,460.1406 L308.8594,460.1406 L308.8594,462.5938 L310.3438,462.5938 Q310.3438,461.9375 310.4688,461.75 Q310.7344,461.3438 311.2031,461.3438 Q311.5781,461.3438 311.8125,461.6016 Q312.0469,461.8594 312.0469,462.4688 L312.0469,464.4375 Q312.0469,464.9844 311.9219,465.1719 Q311.6563,465.5625 311.2031,465.5625 Q310.7344,465.5625 310.4688,465.1563 Q310.3438,464.9688 310.3438,464.2969 L308.8594,464.2969 Z " fill="#000000"/><text fill="#000000" font-family="Verdana" font-size="14" lengthAdjust="spacing" textLength="148.7705" x="322" y="469.0679">Diagnostico_Sintoma</text><line style="stroke:#000000;stroke-width:1;" x1="298" x2="472.7705" y1="477.5" y2="477.5"/><ellipse cx="308" cy="491.5073" fill="#FFFFFF" rx="3" ry="3" style="stroke:#000000;stroke-width:1;"/><text fill="#000000" font-family="Verdana" font-size="14" lengthAdjust="spacing" textLength="142.1533" x="315" y="495.5752">id_diagnostico : INT</text><ellipse cx="308" cy="508.522" fill="#FFFFFF" rx="3" ry="3" style="stroke:#000000;stroke-width:1;"/><text fill="#000000" font-family="Verdana" font-size="14" lengthAdjust="spacing" textLength="118.6924" x="315" y="512.5898">id_sintoma : INT</text><line style="stroke:#000000;stroke-width:1;" x1="298" x2="472.7705" y1="519.5293" y2="519.5293"/></g><!--link Paciente to Diagnostico--><g class="link" data-entity-1="Paciente" data-entity-2="Diagnostico" data-source-line="52" data-uid="lnk8" id="link_Paciente_Diagnostico"><path codeLine="52" d="M145.74,147.5337 C164.67,171.9637 170.3294,179.2682 189.2394,203.6882" fill="none" id="Paciente-Diagnostico" style="stroke:#000000;stroke-width:1;"/><line style="stroke:#000000;stroke-width:1;" x1="140.1282" x2="146.4519" y1="146.8219" y2="141.9218"/><line style="stroke:#000000;stroke-width:1;" x1="141.9657" x2="148.2894" y1="149.1933" y2="144.2932"/><line style="stroke:#000000;stroke-width:1;" x1="145.74" x2="140.84" y1="147.5337" y2="141.21"/><line style="stroke:#000000;stroke-width:1;" x1="195.3619" x2="205.0039" y1="211.5947" y2="214.2465"/><line style="stroke:#000000;stroke-width:1;" x1="195.3619" x2="195.5161" y1="211.5947" y2="221.5935"/><line style="stroke:#000000;stroke-width:1;" x1="195.3619" x2="200.26" y1="211.5947" y2="217.92"/><ellipse cx="191.6884" cy="206.8508" fill="none" rx="4" ry="4" style="stroke:#000000;stroke-width:1;"/><text fill="#000000" font-family="Verdana" font-size="13" lengthAdjust="spacing" textLength="32.4048" x="176.5" y="185.0698">tiene</text></g><!--link Paciente to Historial--><g class="link" data-entity-1="Paciente" data-entity-2="Historial" data-source-line="53" data-uid="lnk9" id="link_Paciente_Historial"><path codeLine="53" d="M94.749,149.02 C97.479,203.69 101.78,276.65 108.5,347 C110.91,372.21 111.9251,382.036 115.1151,406.106" fill="none" id="Paciente-Historial" style="stroke:#000000;stroke-width:1;"/><line style="stroke:#000000;stroke-width:1;" x1="90.5545" x2="98.5445" y1="145.2245" y2="144.8255"/><line style="stroke:#000000;stroke-width:1;" x1="90.7041" x2="98.6941" y1="148.2208" y2="147.8218"/><line style="stroke:#000000;stroke-width:1;" x1="94.749" x2="94.35" y1="149.02" y2="141.03"/><line style="stroke:#000000;stroke-width:1;" x1="116.4289" x2="123.428" y1="416.0193" y2="423.1617"/><line style="stroke:#000000;stroke-width:1;" x1="116.4289" x2="111.532" y1="416.0193" y2="424.7383"/><line style="stroke:#000000;stroke-width:1;" x1="116.4289" x2="117.48" y1="416.0193" y2="423.95"/><ellipse cx="115.6407" cy="410.0714" fill="none" rx="4" ry="4" style="stroke:#000000;stroke-width:1;"/><text fill="#000000" font-family="Verdana" font-size="13" lengthAdjust="spacing" textLength="38.251" x="109.5" y="288.0698">posee</text></g><!--link Diagnostico to Historial--><g class="link" data-entity-1="Diagnostico" data-entity-2="Historial" data-source-line="54" data-uid="lnk10" id="link_Diagnostico_Historial"><path codeLine="54" d="M206.9592,354.061 C192.2292,378.491 188.8571,384.0869 174.1271,408.5069" fill="none" id="Diagnostico-Historial" style="stroke:#000000;stroke-width:1;"/><line style="stroke:#000000;stroke-width:1;" x1="205.5991" x2="212.4501" y1="348.5701" y2="352.7009"/><line style="stroke:#000000;stroke-width:1;" x1="204.05" x2="210.9011" y1="351.1392" y2="355.27"/><line style="stroke:#000000;stroke-width:1;" x1="206.9592" x2="211.09" y1="354.061" y2="347.21"/><line style="stroke:#000000;stroke-width:1;" x1="168.962" x2="169.9677" y1="417.0697" y2="427.019"/><line style="stroke:#000000;stroke-width:1;" x1="168.962" x2="159.6923" y1="417.0697" y2="420.821"/><line style="stroke:#000000;stroke-width:1;" x1="168.962" x2="164.83" y1="417.0697" y2="423.92"/><ellipse cx="172.0611" cy="411.932" fill="none" rx="4" ry="4" style="stroke:#000000;stroke-width:1;"/><text fill="#000000" font-family="Verdana" font-size="13" lengthAdjust="spacing" textLength="45.1699" x="193.5" y="391.0698">genera</text></g><!--link Usuario to Diagnostico--><g class="link" data-entity-1="Usuario" data-entity-2="Diagnostico" data-source-line="55" data-uid="lnk11" id="link_Usuario_Diagnostico"><path codeLine="55" d="M293.0819,148.81 C285.0519,173.24 284.0164,176.3987 275.9964,200.8187" fill="none" id="Usuario-Diagnostico" style="stroke:#000000;stroke-width:1;"/><line style="stroke:#000000;stroke-width:1;" x1="290.531" x2="298.131" y1="143.761" y2="146.259"/><line style="stroke:#000000;stroke-width:1;" x1="289.5942" x2="297.1942" y1="146.6109" y2="149.109"/><line style="stroke:#000000;stroke-width:1;" x1="293.0819" x2="295.58" y1="148.81" y2="141.21"/><line style="stroke:#000000;stroke-width:1;" x1="272.8762" x2="276.0804" y1="210.3194" y2="219.7921"/><line style="stroke:#000000;stroke-width:1;" x1="272.8762" x2="264.6796" y1="210.3194" y2="216.0479"/><line style="stroke:#000000;stroke-width:1;" x1="272.8762" x2="270.38" y1="210.3194" y2="217.92"/><ellipse cx="274.7483" cy="204.619" fill="none" rx="4" ry="4" style="stroke:#000000;stroke-width:1;"/><text fill="#000000" font-family="Verdana" font-size="13" lengthAdjust="spacing" textLength="27.8726" x="286.5" y="185.0698">crea</text></g><!--link Diagnostico to DiagnosticoSintoma--><g class="link" data-entity-1="Diagnostico" data-entity-2="DiagnosticoSintoma" data-source-line="56" data-uid="lnk12" id="link_Diagnostico_DiagnosticoSintoma"><path codeLine="56" d="M296.4081,353.8661 C318.7781,387.4161 331.0342,405.8039 350.1642,434.4939" fill="none" id="Diagnostico-DiagnosticoSintoma" style="stroke:#000000;stroke-width:1;"/><line style="stroke:#000000;stroke-width:1;" x1="290.861" x2="297.5171" y1="352.7571" y2="348.319"/><line style="stroke:#000000;stroke-width:1;" x1="292.5253" x2="299.1814" y1="355.2531" y2="350.8151"/><line style="stroke:#000000;stroke-width:1;" x1="296.4081" x2="291.97" y1="353.8661" y2="347.21"/><line style="stroke:#000000;stroke-width:1;" x1="355.7119" x2="365.142" y1="442.814" y2="446.1414"/><line style="stroke:#000000;stroke-width:1;" x1="355.7119" x2="355.158" y1="442.814" y2="452.7986"/><line style="stroke:#000000;stroke-width:1;" x1="355.7119" x2="360.15" y1="442.814" y2="449.47"/><ellipse cx="352.3833" cy="437.8219" fill="none" rx="4" ry="4" style="stroke:#000000;stroke-width:1;"/><text fill="#000000" font-family="Verdana" font-size="13" lengthAdjust="spacing" textLength="45.7983" x="322.5" y="391.0698">incluye</text></g><!--link Sintoma to DiagnosticoSintoma--><g class="link" data-entity-1="Sintoma" data-entity-2="DiagnosticoSintoma" data-source-line="57" data-uid="lnk13" id="link_Sintoma_DiagnosticoSintoma"><path codeLine="57" d="M428.081,337.7447 C417.811,373.8447 410.8706,398.2556 401.2706,432.0356" fill="none" id="Sintoma-DiagnosticoSintoma" style="stroke:#000000;stroke-width:1;"/><line style="stroke:#000000;stroke-width:1;" x1="425.3281" x2="433.0228" y1="332.8028" y2="334.9919"/><line style="stroke:#000000;stroke-width:1;" x1="424.5072" x2="432.2019" y1="335.6883" y2="337.8774"/><line style="stroke:#000000;stroke-width:1;" x1="428.081" x2="430.27" y1="337.7447" y2="330.05"/><line style="stroke:#000000;stroke-width:1;" x1="398.5369" x2="402.1215" y1="441.6547" y2="450.9902"/><line style="stroke:#000000;stroke-width:1;" x1="398.5369" x2="390.5785" y1="441.6547" y2="447.7098"/><line style="stroke:#000000;stroke-width:1;" x1="398.5369" x2="396.35" y1="441.6547" y2="449.35"/><ellipse cx="400.1771" cy="435.8833" fill="none" rx="4" ry="4" style="stroke:#000000;stroke-width:1;"/><text fill="#000000" font-family="Verdana" font-size="13" lengthAdjust="spacing" textLength="54.3486" x="416.5" y="391.0698">describe</text></g><!--SRC=[XPBFRi8m3CRlUOgCo_veVG5kQ22nmz34ohGRCeb7BRL9bQIR4EpTbvOsfAECInL_TVpz7Fl6PLWWBtCWnHWgHsx7HwyWo9znnC7oBk1xnla3oNNP2MF-l4Yzc2J-etInCRNsFba-pITBBvdAzMAK8CCbIGQ58AsYb9yJmXiffmje2Dfp0B1jVCrVeXM6ojOadNsaiSEKOAkqTIHqunB5mKb6Mizje3JddoYoccewIMS-xDvfJQUkArk18NsI8g0vMQSDGTxWX2Z0P47feGpPHDonx0muAEfiRIzWHpoh8sj3qvu3Izl7rH5W0PJtb1Ai_TP6zZT5rqcpnUhbha3fgH_v5rbouFkwlp2qTRmYaVvtMuPcUBv5tkEMBp67UgHeMTZwmo59zBwt7MFk_3yyovb70ogrHMJnhO6ahQzYW7MFEsWb3C9GdO6EnvoKoAiTiaxvB_UumXjalm00]--></g></svg>